<?xml version="1.0" standalone="no"?><!DOCTYPE svg PUBLIC "-//W3C//DTD SVG 1.1//EN" "http://www.w3.org/Graphics/SVG/1.1/DTD/svg11.dtd"><svg t="1505306724719" class="icon" style="" viewBox="0 0 1024 1024" version="1.1" xmlns="http://www.w3.org/2000/svg" p-id="2930" xmlns:xlink="http://www.w3.org/1999/xlink" width="200" height="200"><defs><style type="text/css"></style></defs><path d="M511.3 64.6c-247.5-0.1-448 200.4-448 447.9 0 195.6 125.4 361.9 300.1 423 23.5 6 19.9-10.9 19.9-22.3v-77.6c-135.9 16-141.3-74-150.5-89-18.5-31.5-62-39.5-49-54.5 31-16 62.5 4 99 58 26.5 39.1 77.9 32.5 104.1 26 5.7-23.5 18-44.5 34.7-60.9-140.6-25-199.4-111-199.4-213.2 0-49.5 16.3-95.1 48.4-131.8-20.4-60.7 1.9-112.5 4.9-120.2 58.2-5.3 118.5 41.6 123.3 45.3 33.1-8.9 70.8-13.7 113-13.7 42.5 0 80.4 4.9 113.6 13.9 11.3-8.6 67.4-48.8 121.4-43.9 2.9 7.7 24.7 58.3 5.5 118.2 32.5 36.8 48.9 82.7 48.9 132.5 0 102.4-59 188.4-200.2 213.3 23.6 23.2 38.2 55.5 38.2 91.2v112.6c0.8 8.9 0 18 15.1 18 177.4-59.9 305-227.4 305-424.8 0-247.5-200.6-448-448-448z" p-id="2931" fill="#33475f"></path></svg>