<?xml version="1.0" standalone="no"?><!DOCTYPE svg PUBLIC "-//W3C//DTD SVG 1.1//EN" "http://www.w3.org/Graphics/SVG/1.1/DTD/svg11.dtd"><svg viewBox="0 0 200 200" version="1.1" xmlns="http://www.w3.org/2000/svg" xmlns:xlink="http://www.w3.org/1999/xlink"><defs><style type="text/css"><![CDATA[
@font-face { font-family: ifont; src: url(http://at.alicdn.com/t/font_1442373896_4754455.eot?#iefix) format(embedded-opentype), url(http://at.alicdn.com/t/font_1442373896_4754455.woff) format(woff), url(http://at.alicdn.com/t/font_1442373896_4754455.ttf) format(truetype), url(http://at.alicdn.com/t/font_1442373896_4754455.svg#ifont) format(svg); }

]]></style></defs><g class="transform-group"><g transform="scale(0.1953125, 0.1953125)"><path d="M511.113305 195.575304c-294.067502 0-445.049169 296.361755-445.049169 296.361755s113.930819 296.402687 445.049169 296.402687c299.857369 0 445.028703-295.243281 445.028703-295.243281S809.815361 195.575304 511.113305 195.575304L511.113305 195.575304zM511.780501 677.187203c-107.515712 0-185.241958-81.054037-185.241958-185.249121 0-104.211457 77.726246-185.237865 185.241958-185.237865 107.512642 0 185.239911 81.021292 185.239911 185.237865C697.020412 596.133166 619.293143 677.187203 511.780501 677.187203L511.780501 677.187203zM511.780501 380.783493c-61.447491 0.134053-111.146403 51.609425-111.146403 111.154589 0 59.506279 49.698912 111.152543 111.146403 111.152543 61.450561 0 111.14231-51.646264 111.14231-111.152543C622.92281 432.378591 573.231061 380.665813 511.780501 380.783493L511.780501 380.783493zM511.780501 380.783493" fill="#33475f"></path></g></g></svg>