<?xml version="1.0" standalone="no"?><!DOCTYPE svg PUBLIC "-//W3C//DTD SVG 1.1//EN" "http://www.w3.org/Graphics/SVG/1.1/DTD/svg11.dtd"><svg  viewBox="0 0 200 200" version="1.1" xmlns="http://www.w3.org/2000/svg" xmlns:xlink="http://www.w3.org/1999/xlink"><defs><style type="text/css"><![CDATA[
@font-face { font-family: ifont; src: url("//at.alicdn.com/t/font_1442373896_4754455.eot?#iefix") format("embedded-opentype"), url("//at.alicdn.com/t/font_1442373896_4754455.woff") format("woff"), url("//at.alicdn.com/t/font_1442373896_4754455.ttf") format("truetype"), url("//at.alicdn.com/t/font_1442373896_4754455.svg#ifont") format("svg"); }

]]></style></defs><g class="transform-group"><g transform="scale(0.1953125, 0.1953125)"><path d="M966.351872 709.571584c-3.575808-11.567104-15.859712-18.01728-27.431936-14.370816l-39.517184 12.4416c30.544896-60.35968 46.523392-127.092736 46.523392-195.642368 0-58.568704-11.476992-115.398656-34.110464-168.910848-21.856256-51.674112-53.14048-98.076672-92.98432-137.920512-39.842816-39.84384-86.2464-71.128064-137.920512-92.98432C627.398656 89.550848 570.568704 78.07488 512 78.07488c-54.235136 0-107.148288 9.885696-157.268992 29.38368-12.444672 4.841472-18.609152 18.854912-13.76768 31.299584 4.841472 12.444672 18.852864 18.612224 31.300608 13.76768 44.50816-17.313792 91.521024-26.093568 139.73504-26.093568 102.9888 0 199.81312 40.105984 272.636928 112.929792C857.460736 312.18688 897.56672 409.012224 897.56672 512c0 64.81408-16.059392 127.792128-46.685184 184.04864l-2.642944-1.482752-17.219584-55.922688c-3.582976-11.60192-15.859712-18.01728-27.424768-14.385152-11.603968 3.647488-18.084864 15.993856-14.529536 27.60192 0.022528 0.04608 0.022528 0.04608 0.059392 0.070656l31.688704 103.001088c0.016384 0.011264 0.028672 0.073728 0.034816 0.10752 1.810432 5.885952 5.86752 10.431488 10.94144 13.012992 5.009408 2.686976 11.052032 3.433472 16.912384 1.590272 0.028672-0.00512 0.075776-0.032768 0.075776-0.032768l102.9632-32.4352c0.028672-0.00512 0.028672-0.00512 0.078848 0C963.405824 733.513728 969.91232 721.17248 966.351872 709.571584zM648.162304 872.84224C604.70784 889.247744 558.896128 897.56672 512 897.56672c-102.9888 0-199.81312-40.105984-272.636928-112.929792C166.539264 711.81312 126.43328 614.987776 126.43328 512c0-63.839232 15.583232-125.912064 45.32224-181.528576l16.900096 54.885376c3.582976 11.60192 15.859712 18.01728 27.424768 14.385152 11.603968-3.647488 18.084864-15.99488 14.529536-27.60192-0.022528-0.04608-0.022528-0.04608-0.059392-0.070656L198.8608 269.067264c-0.017408-0.011264-0.028672-0.073728-0.034816-0.10752-1.810432-5.885952-5.86752-10.431488-10.94144-13.012992-5.009408-2.686976-11.052032-3.433472-16.912384-1.590272-0.028672 0.00512-0.075776 0.032768-0.075776 0.032768L67.93216 286.824448c-0.028672 0.00512-0.028672 0.00512-0.078848 0.001024-11.583488 3.661824-18.091008 16.003072-14.529536 27.602944 3.575808 11.567104 15.859712 18.01728 27.431936 14.37184l44.65664-14.05952C94.332928 375.524352 78.07488 442.848256 78.07488 512c0 58.568704 11.476992 115.397632 34.110464 168.910848 21.856256 51.674112 53.141504 98.076672 92.98432 137.920512 39.842816 39.84384 86.2464 71.128064 137.920512 92.98432 53.512192 22.634496 110.342144 34.110464 168.910848 34.110464 52.75136 0 104.30976-9.366528 153.243648-27.840512 12.4928-4.716544 18.796544-18.66752 14.08-31.161344C674.607104 874.42944 660.657152 868.123648 648.162304 872.84224z" fill="#272636"></path></g></g></svg>