<?xml version="1.0" standalone="no"?>
    <!DOCTYPE svg PUBLIC "-//W3C//DTD SVG 1.1//EN" "http://www.w3.org/Graphics/SVG/1.1/DTD/svg11.dtd">
    <svg  viewBox="0 0 200 200" version="1.1" xmlns="http://www.w3.org/2000/svg" xmlns:xlink="http://www.w3.org/1999/xlink">
        <defs>
            <style type="text/css">
            <![CDATA[ @font-face {
                font-family: ifont;
                src: url(http://at.alicdn.com/t/font_1442373896_4754455.eot?#iefix) format(embedded-opentype), url(http://at.alicdn.com/t/font_1442373896_4754455.woff) format(woff), url(http://at.alicdn.com/t/font_1442373896_4754455.ttf) format(truetype), url(http://at.alicdn.com/t/font_1442373896_4754455.svg#ifont) format(svg);
            }
            
            ]]>
            </style>
        </defs>
        <g class="transform-group">
            <g transform="scale(0.1953125, 0.1953125)">
                <path d="M511.986185 959.785489c-119.569236 0-232.011144-46.548152-316.52498-131.101897-84.59263-84.570117-131.157155-197.031469-131.157155-316.674383 0-119.643937 46.64025-232.102219 131.228787-316.675406C280.050766 110.780059 392.489604 64.215534 512.135588 64.215534c119.569236 0 232.083799 46.564525 316.600705 131.11827 174.600597 174.60162 174.600597 458.693934 0.074701 633.275087-84.591607 84.59263-197.10617 131.176598-316.750107 131.176598L511.986185 959.785489 511.986185 959.785489zM512.135588 140.264581c-99.295494 0-192.650695 38.654368-262.83415 108.837824-70.255087 70.219271-108.949364 163.573449-108.949364 262.905782s38.694277 192.705953 108.87671 262.904759c70.180386 70.183456 163.459862 108.822474 262.755356 108.822474l0.074701 0c99.295494 0 192.722326-38.677904 262.980483-108.897176 144.895041-144.930857 144.895041-380.786563-0.074701-525.735839C704.783213 178.918949 611.431082 140.264581 512.135588 140.264581L512.135588 140.264581zM420.04417 734.068701c9.728572 0 19.457144-3.714602 26.883277-11.141758l184.108135-184.051853c7.130398-7.129374 11.140735-16.802688 11.140735-26.885324 0-10.081613-4.010337-19.753903-11.140735-26.883277L446.92847 301.069987c-14.854313-14.853289-38.915311-14.853289-53.769624 0-14.853289 14.853289-14.853289 38.935778 0 53.769624l157.224858 157.149133L393.158846 669.157319c-14.853289 14.833847-14.853289 38.915311 0 53.769624C400.586003 730.3541 410.313551 734.068701 420.04417 734.068701L420.04417 734.068701z" fill="#272636"></path>
            </g>
        </g>
    </svg>
