<?xml version="1.0" standalone="no"?>
    <!DOCTYPE svg PUBLIC "-//W3C//DTD SVG 1.1//EN" "http://www.w3.org/Graphics/SVG/1.1/DTD/svg11.dtd">
    <svg viewBox="0 0 200 200" version="1.1" xmlns="http://www.w3.org/2000/svg" xmlns:xlink="http://www.w3.org/1999/xlink">
        <g class="transform-group">
            <g transform="scale(0.1953125, 0.1953125)">
                <path d="M510.640538 63.464427c-246.260683 0-446.633247 200.37461-446.633247 446.64348 0 246.287289 200.372563 446.664969 446.633247 446.664969 246.297522 0 446.671109-200.37768 446.671109-446.664969C957.311647 263.839037 756.93806 63.464427 510.640538 63.464427zM510.640538 903.228379c-216.755696 0-393.08875-176.358637-393.08875-393.121496 0-216.763882 176.333054-393.098983 393.08875-393.098983 216.782302 0 393.126612 176.335101 393.126612 393.098983C903.76715 726.870766 727.421816 903.228379 510.640538 903.228379zM529.618774 281.041838c-10.458189-10.458189-27.40107-10.458189-37.860283 0-10.44898 10.459213-10.44898 27.402093 0 37.860283l164.423817 164.422793L300.526099 483.324914c-14.773472 0-26.771737 11.990079-26.771737 26.771737 0 14.774495 11.998265 26.771737 26.771737 26.771737l355.655186 0L491.758492 701.329043c-10.44898 10.461259-10.44898 27.403117 0 37.861306 5.234211 5.225001 12.087293 7.842619 18.931165 7.842619 6.861268 0 13.694907-2.617617 18.929118-7.842619l210.114438-210.171744c10.460236-10.450003 10.460236-27.392884 0-37.851073L529.618774 281.041838z" fill="#272636"></path>
            </g>
        </g>
    </svg>
