<?xml version="1.0" standalone="no"?>
    <!DOCTYPE svg PUBLIC "-//W3C//DTD SVG 1.1//EN" "http://www.w3.org/Graphics/SVG/1.1/DTD/svg11.dtd">
    <svg viewBox="0 0 200 200" version="1.1" xmlns="http://www.w3.org/2000/svg" xmlns:xlink="http://www.w3.org/1999/xlink">
        <g class="transform-group">
            <g transform="scale(0.1953125, 0.1953125)">
                <path d="M64.007291 510.106884c0 246.287289 200.373587 446.664969 446.671109 446.664969 246.25966 0 446.633247-200.37768 446.633247-446.664969 0-246.26887-200.373587-446.64348-446.633247-446.64348C264.379854 63.464427 64.007291 263.839037 64.007291 510.106884zM117.551788 510.106884c0-216.763882 176.344311-393.098983 393.126612-393.098983 216.754672 0 393.08875 176.335101 393.08875 393.098983 0 216.762859-176.333054 393.121496-393.08875 393.121496C293.896098 903.228379 117.551788 726.870766 117.551788 510.106884zM281.585725 491.167532c-10.460236 10.458189-10.460236 27.40107 0 37.851073l210.114438 210.171744c5.234211 5.225001 12.06785 7.842619 18.929118 7.842619 6.843872 0 13.696953-2.617617 18.931165-7.842619 10.44898-10.458189 10.44898-27.400047 0-37.861306L365.136629 536.868387l355.655186 0c14.774495 0 26.771737-11.998265 26.771737-26.771737 0-14.781658-11.998265-26.771737-26.771737-26.771737L365.136629 483.324914l164.423817-164.422793c10.44898-10.458189 10.44898-27.40107 0-37.860283-10.459213-10.458189-27.402093-10.458189-37.860283 0L281.585725 491.167532z" fill="#272636"></path>
            </g>
        </g>
    </svg>
