<?xml version="1.0" standalone="no"?>
    <!DOCTYPE svg PUBLIC "-//W3C//DTD SVG 1.1//EN" "http://www.w3.org/Graphics/SVG/1.1/DTD/svg11.dtd">
    <svg viewBox="0 0 200 200" version="1.1" xmlns="http://www.w3.org/2000/svg" xmlns:xlink="http://www.w3.org/1999/xlink">
        <g class="transform-group">
            <g transform="scale(0.1953125, 0.1953125)">
                <path d="M883.875 684.806 883.875 684.806c41.592-90.131 47.607-188.11 23.715-277.077-27.468-102.682-95.063-194.238-193.08-249.865l43.48-93.961-247.21 64.819 110.564 230.424 45.491-98.308c66.606 40.672 112.204 104.396 131.498 176.146 17.257 64.639 13.024 134.926-17.145 200.514-38.445 83.352-110.309 140.105-192.603 162.245-11.892 3.177-24.003 5.62-36.221 7.297l51.033 105.49c4.853-1.129 9.665-2.263 14.447-3.572C731.146 878.755 830.987 799.709 883.875 684.806L883.875 684.806zM359.179 767.282c-67.595-40.598-113.886-104.87-133.367-177.273-17.252-64.64-12.985-134.967 17.145-200.48 38.447-83.386 110.31-140.141 192.605-162.28 13.646-3.651 27.541-6.275 41.587-7.957l-50.886-106.037c-6.676 1.426-13.353 2.956-19.957 4.744-113.266 30.272-213.141 109.317-266.07 224.221-41.511 90.097-47.533 188.11-23.639 277.038l0.073 0.293c27.686 103.375 96.083 195.406 195.196 250.886l-41.111 89.661 246.955-65.694L406.381 664.382 359.179 767.282 359.179 767.282zM359.179 767.282" fill="#272636"></path>
            </g>
        </g>
    </svg>
