<?xml version="1.0" standalone="no"?>
    <!DOCTYPE svg PUBLIC "-//W3C//DTD SVG 1.1//EN" "http://www.w3.org/Graphics/SVG/1.1/DTD/svg11.dtd">
    <svg viewBox="0 0 200 200" version="1.1" xmlns="http://www.w3.org/2000/svg" xmlns:xlink="http://www.w3.org/1999/xlink">
        <g class="transform-group">
            <g transform="scale(0.1953125, 0.1953125)">
                <path d="M512 75.045393c-241.323625 0-436.954607 195.630981-436.954607 436.954607s195.630981 436.954607 436.954607 436.954607 436.954607-195.630981 436.954607-436.954607S753.323625 75.045393 512 75.045393zM114.06382 512c0-219.774562 178.162577-397.93618 397.93618-397.93618S909.93618 292.225438 909.93618 512c0 94.429483-32.891685 181.177049-87.842517 249.411116L695.729378 634.516614c25.184839-34.749843 39.961888-76.973543 39.961888-122.516614 0-118.615251-100.149693-214.771536-223.691266-214.771536s-223.691266 96.156285-223.691266 214.771536 100.149693 214.771536 223.691266 214.771536c38.016479 0 73.810457-9.116285 105.159431-25.180045l130.521648 131.069124c-65.973213 48.570966-147.473258 77.275566-235.681079 77.275566C292.225438 909.93618 114.06382 731.773603 114.06382 512zM679.437423 511.740165c-0.000959 0.255041-0.000959 0.510082-0.002876 0.766082-0.005753 0.541723-0.010547 1.082487-0.022052 1.625169-0.050816 2.443985-0.154367 4.893723-0.322157 7.349213-2.860105 42.097139-22.838652 80.806831-56.199191 108.942861-30.250187 25.425498-68.257079 39.510292-108.155685 40.269663-0.052734 0.000959-0.106427 0.000959-0.16012 0.001918-1.065228 0.019176-2.132375 0.023011-3.200479 0.023011-92.105348-0.319281-166.680929-71.129648-166.813243-158.487011 0.000959-0.172584-0.000959-0.343251 0.000959-0.515835 0.004794-0.592539 0.011506-1.185079 0.02397-1.778577 0.048899-2.441109 0.147655-4.891805 0.316404-7.353049 5.735551-83.894172 80.024449-149.185678 167.653154-149.304569C604.683506 353.563805 679.288809 424.374172 679.437423 511.740165z" fill="#272636"></path>
            </g>
        </g>
    </svg>
