<?xml version="1.0" standalone="no"?><!DOCTYPE svg PUBLIC "-//W3C//DTD SVG 1.1//EN" "http://www.w3.org/Graphics/SVG/1.1/DTD/svg11.dtd"><svg t="1505198883925" class="icon" style="" viewBox="0 0 1024 1024" version="1.1" xmlns="http://www.w3.org/2000/svg" p-id="3530" xmlns:xlink="http://www.w3.org/1999/xlink" width="200" height="200"><defs><style type="text/css"></style></defs><path d="M469.333333 85.333333v88.32A341.418667 341.418667 0 0 0 173.653333 469.333333H85.333333v85.333334h88.32A341.418667 341.418667 0 0 0 469.333333 850.346667V938.666667h85.333334v-88.32A341.418667 341.418667 0 0 0 850.346667 554.666667H938.666667v-85.333334h-88.32A341.418667 341.418667 0 0 0 554.666667 173.653333V85.333333m-85.333334 174.08V341.333333h85.333334V259.84c106.666667 17.493333 192 102.826667 209.92 209.493333H682.666667v85.333334h81.493333c-17.493333 106.666667-102.826667 192-209.493333 209.92V682.666667h-85.333334v81.493333C362.666667 746.666667 277.333333 661.333333 259.413333 554.666667H341.333333v-85.333334H259.84C277.333333 362.666667 362.666667 277.333333 469.333333 259.413333M512 469.333333a42.666667 42.666667 0 0 0-42.666667 42.666667 42.666667 42.666667 0 0 0 42.666667 42.666667 42.666667 42.666667 0 0 0 42.666667-42.666667 42.666667 42.666667 0 0 0-42.666667-42.666667z" fill="#272636" p-id="3531"></path></svg>